<?xml version="1.0" encoding="UTF-8"?>
<!DOCTYPE svg PUBLIC "-//W3C//DTD SVG 1.1//EN" "http://www.w3.org/Graphics/SVG/1.1/DTD/svg11.dtd">
<svg xmlns="http://www.w3.org/2000/svg" version="1.1" width="64px" height="64px" style="shape-rendering:geometricPrecision; text-rendering:geometricPrecision; image-rendering:optimizeQuality; fill-rule:evenodd; clip-rule:evenodd" xmlns:xlink="http://www.w3.org/1999/xlink">
<g><path style="opacity:1" fill="transparent" d="M -0.5,-0.5 C 20.8333,-0.5 42.1667,-0.5 63.5,-0.5C 63.5,20.8333 63.5,42.1667 63.5,63.5C 42.1667,63.5 20.8333,63.5 -0.5,63.5C -0.5,42.1667 -0.5,20.8333 -0.5,-0.5 Z"/></g>
<g><path style="opacity:1" fill="#000000" d="M 36.5,7.5 C 40.5138,7.33449 44.5138,7.50115 48.5,8C 51.473,9.22423 52.1397,11.2242 50.5,14C 39.7547,13.4185 34.0881,18.4185 33.5,29C 33.4554,39.9496 38.7888,46.2829 49.5,48C 55.0083,50.1554 55.675,53.1554 51.5,57C 39.6042,57.4563 31.7709,51.9563 28,40.5C 25.7348,30.8234 26.7348,21.49 31,12.5C 32.8119,10.6997 34.6452,9.03308 36.5,7.5 Z"/></g>
<g><path style="opacity:1" fill="#000000" d="M 14.5,8.5 C 16.1439,8.28649 17.6439,8.61983 19,9.5C 20.0842,12.8803 20.5842,16.3803 20.5,20C 19.8935,31.1617 19.3935,42.3283 19,53.5C 16.0491,57.4 13.3825,57.0666 11,52.5C 11.1711,38.8509 11.5044,25.1842 12,11.5C 12.6979,10.3094 13.5313,9.30943 14.5,8.5 Z"/></g>
<g><path style="opacity:1" fill="#000000" d="M 47.5,24.5 C 50.5628,26.0512 53.2295,28.2179 55.5,31C 52.6182,35.3972 49.1182,36.2305 45,33.5C 44.1307,30.0072 44.964,27.0072 47.5,24.5 Z"/></g>
</svg>
