<?xml version="1.0" encoding="UTF-8"?>
<!DOCTYPE svg PUBLIC "-//W3C//DTD SVG 1.1//EN" "http://www.w3.org/Graphics/SVG/1.1/DTD/svg11.dtd">
<svg xmlns="http://www.w3.org/2000/svg" version="1.1" width="64px" height="64px" style="shape-rendering:geometricPrecision; text-rendering:geometricPrecision; image-rendering:optimizeQuality; fill-rule:evenodd; clip-rule:evenodd" xmlns:xlink="http://www.w3.org/1999/xlink">
<g><path style="opacity:1" fill="transparent" d="M -0.5,-0.5 C 20.8333,-0.5 42.1667,-0.5 63.5,-0.5C 63.5,20.8333 63.5,42.1667 63.5,63.5C 42.1667,63.5 20.8333,63.5 -0.5,63.5C -0.5,42.1667 -0.5,20.8333 -0.5,-0.5 Z"/></g>
<g><path style="opacity:1" fill="#000000" d="M 20.5,5.5 C 26.1764,5.33391 31.8431,5.50058 37.5,6C 40.9822,6.48879 44.1488,7.65545 47,9.5C 47.7112,11.3668 47.2112,12.8668 45.5,14C 37.5081,13.8107 29.5081,13.8107 21.5,14C 17.5764,17.1816 17.5764,20.1816 21.5,23C 31.5732,23.0758 41.5732,23.7425 51.5,25C 53.0488,26.214 54.2155,27.714 55,29.5C 55.6667,33.5 55.6667,37.5 55,41.5C 54.4257,43.492 53.259,44.992 51.5,46C 42.8177,46.965 34.1511,47.965 25.5,49C 21.8333,51.3333 18.8333,54.3333 16.5,58C 14.3209,59.9869 12.4876,59.8202 11,57.5C 9.41909,51.9384 10.9191,47.4384 15.5,44C 18.8662,41.8159 22.5328,40.4825 26.5,40C 32.5,39.6667 38.5,39.3333 44.5,39C 47.2414,35.7582 46.9081,32.7582 43.5,30C 34.1667,29.6667 24.8333,29.3333 15.5,29C 14.0692,28.5348 12.9025,27.7014 12,26.5C 10.4548,21.9534 10.1215,17.2867 11,12.5C 13.1213,8.64416 16.2879,6.31083 20.5,5.5 Z"/></g>
</svg>
