<?xml version="1.0" encoding="UTF-8"?>
<!DOCTYPE svg PUBLIC "-//W3C//DTD SVG 1.1//EN" "http://www.w3.org/Graphics/SVG/1.1/DTD/svg11.dtd">
<svg xmlns="http://www.w3.org/2000/svg" version="1.1" width="64px" height="64px" style="shape-rendering:geometricPrecision; text-rendering:geometricPrecision; image-rendering:optimizeQuality; fill-rule:evenodd; clip-rule:evenodd" xmlns:xlink="http://www.w3.org/1999/xlink">
<g><path style="opacity:1" fill="transparent" d="M -0.5,-0.5 C 20.8333,-0.5 42.1667,-0.5 63.5,-0.5C 63.5,20.8333 63.5,42.1667 63.5,63.5C 42.1667,63.5 20.8333,63.5 -0.5,63.5C -0.5,42.1667 -0.5,20.8333 -0.5,-0.5 Z"/></g>
<g><path style="opacity:1" fill="#000000" d="M 14.5,4.5 C 23.1735,5.53155 31.8402,5.53155 40.5,4.5C 47.6444,4.31743 52.1444,7.65076 54,14.5C 57.8656,45.9897 44.0323,59.8231 12.5,56C 10.3517,53.9251 10.0183,51.5918 11.5,49C 19.133,47.2679 26.7996,45.6012 34.5,44C 42.6552,40.2115 46.6552,33.7115 46.5,24.5C 47.3066,16.8092 43.9733,13.3092 36.5,14C 35,15.5 33.5,17 32,18.5C 31.3321,30.105 25.1655,34.9384 13.5,33C 11.393,31.7365 10.393,29.9032 10.5,27.5C 13.9466,27.1857 17.2799,26.3524 20.5,25C 24.2115,22.487 25.3782,18.987 24,14.5C 23.5,14 23,13.5 22.5,13C 18.4207,12.0618 14.4207,10.8952 10.5,9.5C 11.8569,7.81439 13.1902,6.14772 14.5,4.5 Z"/></g>
</svg>
