<?xml version="1.0" encoding="UTF-8"?>
<!DOCTYPE svg PUBLIC "-//W3C//DTD SVG 1.1//EN" "http://www.w3.org/Graphics/SVG/1.1/DTD/svg11.dtd">
<svg xmlns="http://www.w3.org/2000/svg" version="1.1" width="440px" height="437px" style="shape-rendering:geometricPrecision; text-rendering:geometricPrecision; image-rendering:optimizeQuality; fill-rule:evenodd; clip-rule:evenodd" xmlns:xlink="http://www.w3.org/1999/xlink">
<g><path style="opacity:1" fill="transparent" d="M -0.5,-0.5 C 146.167,-0.5 292.833,-0.5 439.5,-0.5C 439.5,145.167 439.5,290.833 439.5,436.5C 292.833,436.5 146.167,436.5 -0.5,436.5C -0.5,290.833 -0.5,145.167 -0.5,-0.5 Z"/></g>
<g><path style="opacity:1" fill="#000000" d="M 302.5,195.5 C 302.167,195.5 301.833,195.5 301.5,195.5C 297.872,166.598 287.372,140.598 270,117.5C 247.793,92.1559 220.626,84.6559 188.5,95C 172.868,102.63 160.368,113.797 151,128.5C 138.624,150.293 130.624,173.626 127,198.5C 127.16,155.697 136.493,115.03 155,76.5C 163.507,58.6604 175.673,43.8271 191.5,32C 209.105,22.6403 226.105,23.6403 242.5,35C 254.83,45.1656 264.663,57.3323 272,71.5C 291.45,110.518 301.616,151.851 302.5,195.5 Z"/></g>
<g><path style="opacity:1" fill="#000000" d="M 303.5,64.5 C 310.736,66.2829 317.403,69.4495 323.5,74C 326.95,77.3989 328.283,81.5655 327.5,86.5C 325.194,114.889 322.361,143.223 319,171.5C 317.132,187.311 312.632,202.311 305.5,216.5C 305.833,216.833 306.167,217.167 306.5,217.5C 316.703,209.471 324.87,199.804 331,188.5C 336.926,173.057 342.259,157.39 347,141.5C 350.805,131.752 354.805,122.086 359,112.5C 361.821,108.337 365.655,106.837 370.5,108C 380.761,116.541 385.927,127.374 386,140.5C 385.058,143.993 383.725,147.326 382,150.5C 372.333,163.5 362.667,176.5 353,189.5C 340.976,204.192 325.809,214.026 307.5,219C 325.788,223.943 340.955,233.777 353,248.5C 365.053,264.22 376.72,280.22 388,296.5C 388.667,299.167 388.667,301.833 388,304.5C 385,310.5 382,316.5 379,322.5C 376.833,326 374,328.833 370.5,331C 366.207,332.202 362.707,331.035 360,327.5C 349.567,306.871 341.9,285.204 337,262.5C 330.876,245.378 320.543,231.378 306,220.5C 308.828,227.299 311.494,234.299 314,241.5C 315.492,247.801 316.825,254.135 318,260.5C 322.27,293.41 325.27,326.41 327,359.5C 325.283,364.549 322.116,368.382 317.5,371C 313.484,373.26 309.317,375.093 305,376.5C 303.455,374.791 302.622,372.791 302.5,370.5C 312.103,322.331 312.936,273.997 305,225.5C 304.64,223.579 303.806,221.912 302.5,220.5C 283.912,232.404 263.578,239.57 241.5,242C 215.273,244.882 189.273,243.548 163.5,238C 150.784,234.641 139.118,229.141 128.5,221.5C 128.167,221.833 127.833,222.167 127.5,222.5C 129.222,227.612 131.722,232.279 135,236.5C 171.606,275.577 214.439,284.077 263.5,262C 279.234,253.6 291.734,241.767 301,226.5C 296.715,250.819 284.881,271.986 265.5,290C 221.483,319.192 182.317,313.692 148,273.5C 137.964,258.089 130.631,241.422 126,223.5C 124.956,224.623 124.29,225.956 124,227.5C 118.049,262.693 117.049,298.027 121,333.5C 122.945,347.502 124.779,361.502 126.5,375.5C 124.473,375.662 122.473,375.495 120.5,375C 115.833,372.333 111.167,369.667 106.5,367C 102.768,363.308 101.101,358.808 101.5,353.5C 104.275,320.754 107.775,288.087 112,255.5C 113.944,243.835 117.777,232.835 123.5,222.5C 123.167,222.167 122.833,221.833 122.5,221.5C 108.46,232.231 98.2929,245.898 92,262.5C 87.8193,276.225 83.486,289.892 79,303.5C 75.9284,312.06 72.0951,320.227 67.5,328C 62.9617,330.303 58.795,329.803 55,326.5C 49.7203,318.342 45.387,309.675 42,300.5C 40.993,295.889 41.6597,291.555 44,287.5C 56.0723,270.757 68.9056,254.591 82.5,239C 94.0191,229.407 107.019,222.741 121.5,219C 100.428,213.721 83.2612,202.555 70,185.5C 61.7187,173.551 53.052,161.885 44,150.5C 41.7298,146.07 41.0631,141.403 42,136.5C 45.6884,125.612 51.5218,116.112 59.5,108C 62.6693,107.022 65.5027,107.522 68,109.5C 78.4353,129.471 86.102,150.471 91,172.5C 96.8543,190.56 107.354,205.227 122.5,216.5C 122.833,216.167 123.167,215.833 123.5,215.5C 117.768,204.471 113.935,192.804 112,180.5C 107.441,146.929 104.108,113.263 102,79.5C 103.122,77.3762 104.622,75.5429 106.5,74C 110.666,71.0825 114.999,68.4159 119.5,66C 124.08,64.5848 126.414,66.2515 126.5,71C 116.382,118.337 115.882,165.837 125,213.5C 125.833,214.333 126.667,215.167 127.5,216C 132.652,213.08 137.985,210.08 143.5,207C 174.191,195.496 205.858,191.83 238.5,196C 261.25,198.028 282.416,204.861 302,216.5C 302.945,216.095 303.612,215.428 304,214.5C 304.844,210.789 305.844,207.123 307,203.5C 312.895,158.404 311.395,113.571 302.5,69C 302.605,67.4085 302.939,65.9085 303.5,64.5 Z"/></g>
<g><path style="opacity:1" fill="#000000" d="M 202.5,130.5 C 240.389,127.934 268.889,142.934 288,175.5C 294.969,187.416 299.636,200.083 302,213.5C 281.527,182.005 252.361,165.672 214.5,164.5C 183.126,165.272 156.959,177.272 136,200.5C 132.937,204.569 130.27,208.902 128,213.5C 133.794,177.064 153.294,150.897 186.5,135C 191.975,133.548 197.308,132.048 202.5,130.5 Z"/></g>
<g><path style="opacity:1" fill="#000000" d="M 388.5,194.5 C 391.044,194.104 393.211,194.771 395,196.5C 395.667,211.5 395.667,226.5 395,241.5C 393.192,243.396 391.025,243.896 388.5,243C 366.747,228.555 342.747,220.555 316.5,219C 342.926,217.47 366.926,209.304 388.5,194.5 Z"/></g>
<g><path style="opacity:1" fill="#600000" d="M 301.5,195.5 C 301.833,195.5 302.167,195.5 302.5,195.5C 303.634,197.966 303.801,200.633 303,203.5C 302.433,200.832 301.933,198.166 301.5,195.5 Z"/></g>
<g><path style="opacity:1" fill="#000000" d="M 105.5,218.5 C 105.5,218.833 105.5,219.167 105.5,219.5C 93.2898,220.442 81.2898,222.608 69.5,226C 59.0409,230.97 48.7076,236.137 38.5,241.5C 36.5749,241.41 35.4083,240.41 35,238.5C 34.3333,225.167 34.3333,211.833 35,198.5C 35.804,197.196 36.9707,196.529 38.5,196.5C 50.1277,203.147 62.1277,208.981 74.5,214C 84.7084,216.387 95.0417,217.887 105.5,218.5 Z"/></g>
<g><path style="opacity:1" fill="#600000" d="M 105.5,219.5 C 105.5,219.167 105.5,218.833 105.5,218.5C 107.895,217.637 110.229,217.637 112.5,218.5C 110.257,219.474 107.924,219.808 105.5,219.5 Z"/></g>
<g><path style="opacity:1" fill="#500000" d="M 128.5,245.5 C 127.549,246.919 127.216,248.585 127.5,250.5C 126.353,246.354 126.186,242.02 127,237.5C 127.567,240.168 128.067,242.834 128.5,245.5 Z"/></g>
<g><path style="opacity:1" fill="#000000" d="M 127.5,250.5 C 127.216,248.585 127.549,246.919 128.5,245.5C 132.709,273.567 143.209,298.9 160,321.5C 187.886,351.673 219.386,356.173 254.5,335C 275.189,318.145 288.689,296.645 295,270.5C 297.984,259.232 300.651,247.898 303,236.5C 302.37,282.956 291.703,326.956 271,368.5C 261.887,386.613 248.387,400.447 230.5,410C 214.57,415.158 199.903,412.825 186.5,403C 170.525,388.556 158.358,371.389 150,351.5C 136.714,319.116 129.214,285.449 127.5,250.5 Z"/></g>
</svg>
