<?xml version="1.0" encoding="UTF-8"?>
<!DOCTYPE svg PUBLIC "-//W3C//DTD SVG 1.1//EN" "http://www.w3.org/Graphics/SVG/1.1/DTD/svg11.dtd">
<svg xmlns="http://www.w3.org/2000/svg" version="1.1" width="64px" height="64px" style="shape-rendering:geometricPrecision; text-rendering:geometricPrecision; image-rendering:optimizeQuality; fill-rule:evenodd; clip-rule:evenodd" xmlns:xlink="http://www.w3.org/1999/xlink">
<g><path style="opacity:1" fill="transparent" d="M -0.5,-0.5 C 20.8333,-0.5 42.1667,-0.5 63.5,-0.5C 63.5,20.8333 63.5,42.1667 63.5,63.5C 42.1667,63.5 20.8333,63.5 -0.5,63.5C -0.5,42.1667 -0.5,20.8333 -0.5,-0.5 Z"/></g>
<g><path style="opacity:1" fill="#000000" d="M 13.5,7.5 C 23.8387,7.33351 34.172,7.50017 44.5,8C 49.806,10.4406 52.1393,14.6073 51.5,20.5C 51.4931,23.5917 50.9931,26.5917 50,29.5C 48.2142,30.7774 47.0476,32.444 46.5,34.5C 49.6988,40.2337 52.3655,46.2337 54.5,52.5C 52.3656,58.6907 49.1989,59.0241 45,53.5C 44.472,44.3949 39.8054,39.0616 31,37.5C 26.8786,38.6081 23.5453,40.9414 21,44.5C 19,47.8333 17,51.1667 15,54.5C 13.8904,56.0368 12.3904,56.7035 10.5,56.5C 8.9336,46.4502 12.2669,38.2835 20.5,32C 26.911,28.8515 33.5777,26.5181 40.5,25C 43.1667,22 43.1667,19 40.5,16C 31.483,15.6158 22.483,15.6158 13.5,16C 11.8839,15.3848 10.5505,14.3848 9.5,13C 10.965,11.2258 12.2983,9.39245 13.5,7.5 Z"/></g>
</svg>
